<svg id="Layer_1" data-name="Layer 1" xmlns="http://www.w3.org/2000/svg" viewBox="0 0 761.87 170.55"><defs><style>.cls-1{fill:#0e27c7;}.cls-2{fill:#fff;}.cls-3{fill:#212121;}</style></defs><path class="cls-1" d="M88.6,146.86c-.86,0-1.56,0-2.5,0-1.22-.09-1.3-.09-2.32-.23-13.58-1-24.71-6.89-33.87-16.82A48.92,48.92,0,0,1,39,111.26a3.64,3.64,0,0,0-1.92-2A51.25,51.25,0,0,1,9.48,85.75a49.72,49.72,0,0,1-6-30.48,48.43,48.43,0,0,1,16.54-31.8A49,49,0,0,1,57.47,10.68c12.62.9,23.23,6.06,32.15,14.85,5.44,5.36,9.09,11.89,11.95,18.92a4.54,4.54,0,0,0,2.44,2.3A51.18,51.18,0,0,1,125.81,61a49.17,49.17,0,0,1,12,22.69c3.3,15.23,1.06,29.46-8.5,42.11s-22.14,19.51-37.82,20.9C89.91,146.82,90.16,146.78,88.6,146.86Z"/><path class="cls-2" d="M34.45,60.09,26,69.28c-.51.47-.56.45-.68.4s-.21-.26-.25-.76a15.89,15.89,0,0,1,.05-2.29c.54-10.87,1.12-21.74,1.66-32.61.07-1.43.65-2,2.08-2.08,6.28-.24,12.56-.54,18.83-.82l13.9-.62c.48,0,1,.07,2.17.16-2.84,3.86-6.35,6.44-9.29,9.91,2.16,2.17,4.29,4.33,6.42,6.5.46.45.9.92,1.37,1.36,1.18,1.11,1.16,2-.34,2.81A50.72,50.72,0,0,0,46.8,64.73c-1,1.27-2,2.46-3.07,3.68-1.19-1.11-2.4-2.2-3.58-3.33-1.6-1.54-3.17-3.1-4.76-4.65C35.3,60.34,35.14,60.33,34.45,60.09Z"/><path class="cls-2" d="M47.19,112.05c1.69,0,3.39-.06,5.07,0,9.33.39,17.95-2.09,26.07-6.5,1.37-.75,2.24-.76,3.33.39,2.37,2.48,4.82,4.88,7.32,7.24,1.08,1,.82,1.75-.12,2.65-2.11,2-4.17,4.13-6.24,6.21-.43.43-.82.91-1.19,1.32,2.84,0,5.6.08,8.35,0,8.14-.27,16.27-.64,24.41-.91,1.2,0,1.65-.5,1.71-1.64q.46-9.45,1-18.88c.21-3.79.51-7.57.74-11.35.06-1,0-2.1,0-3.7-2.66,2.71-5,5-7.3,7.48C109,95.83,108,96,106.58,94.4c-2.15-2.39-4.48-4.63-6.82-6.84A2.84,2.84,0,0,1,99,83.64a51.6,51.6,0,0,0,5.31-21.09c.07-1.35-.13-2.71-.16-4.07s0-2.67,0-4c13.75,4.08,29.33,21.18,28.18,43.41-1.28,24.7-22.31,43-46.94,42C69.55,139.26,47.1,123.05,47.19,112.05Z"/><path class="cls-2" d="M60.72,60.57a13,13,0,0,1,1.47,1.13c8.29,8.41,16.53,16.87,24.88,25.21,1.41,1.42,1.28,2.32.1,3.71-3.89,4.65-3.88,4.72-8.09.48-7.76-7.82-15.45-15.71-23.21-23.54-1-1-1.13-1.86,0-2.85s2.16-2.09,3.28-3.1A14,14,0,0,1,60.72,60.57Z"/><path class="cls-2" d="M51.29,71.67c2.5,2.74,4.93,5.55,7.5,8.22,5.59,5.82,11.26,11.56,16.9,17.35,1.65,1.69,1.61,1.88-.51,3-4.09,2.19-4.19,2.29-7.4-.91C61.1,92.7,54.52,85.94,48,79.18a2.13,2.13,0,0,1-.48-1.87c.8-1.8,1.82-3.5,2.76-5.23Z"/><path class="cls-2" d="M93.09,81.74,67.64,56.09A5.33,5.33,0,0,1,76,55.67c5.88,6,11.73,12,17.76,17.77,1.77,1.7,2.1,3.18.93,5.2C94.07,79.67,93.59,80.75,93.09,81.74Z"/><path class="cls-2" d="M45,87.46l17.58,17.13c-4.22,2-7.74,1.54-10.6-1.24-2.15-2.1-4.43-4.23-6.42-6.32a5.2,5.2,0,0,1-1.91-5.1c.21-1.39.36-2.78.54-4.17Z"/><path class="cls-2" d="M97.46,66.33,82.8,51.44c2.75-1.22,7.42-.69,9.28,1C96.3,56.26,100.4,60.05,97.46,66.33Z"/><path class="cls-3" d="M169.15,118.65l7.33-13.86a47.11,47.11,0,0,0,10.74,5,34.52,34.52,0,0,0,9.66,1.33q6.54,0,9.81-2.58a8.66,8.66,0,0,0,3.27-7.19,8.49,8.49,0,0,0-2.62-6.63q-2.61-2.35-9.49-4-13.53-3.18-19.66-8.9T172.05,66A22.73,22.73,0,0,1,180,48.49q7.92-7.18,22.25-7.19A50.76,50.76,0,0,1,214,42.67a50,50,0,0,1,11.06,4l-6.77,14a40.68,40.68,0,0,0-8.83-3.78,29.46,29.46,0,0,0-7.82-1.16q-5.62,0-8.78,2.24a7.45,7.45,0,0,0-3.15,6.45,6.76,6.76,0,0,0,2.87,5.86q2.86,2,10.31,3.86,13.13,3.07,19,9t5.86,16.68q0,11.47-8.07,18.61t-23.36,7.14a58,58,0,0,1-14.12-1.82A50.66,50.66,0,0,1,169.15,118.65Z"/><path class="cls-3" d="M333.8,124.17H316.46v-34q0-6.93-2.47-10.28t-7.53-3.36a9.23,9.23,0,0,0-7.73,4.09,16.69,16.69,0,0,0-3,10.18v33.42H278.38V89.67q0-6.65-2.5-9.92t-7.39-3.27a9.42,9.42,0,0,0-7.9,3.9q-3,3.89-2.95,10.54v33.25H240.25V64.55h17.39v9.32h.23a22.22,22.22,0,0,1,19.21-10.8,19,19,0,0,1,10.62,2.84,17.8,17.8,0,0,1,6.6,8.41,22.67,22.67,0,0,1,8.41-8.46,23.39,23.39,0,0,1,11.59-2.79q9.72,0,14.61,6t4.89,18Z"/><path class="cls-3" d="M398.3,124.17H381.76v-8.64h-.23a20.46,20.46,0,0,1-7.44,7.56,20.24,20.24,0,0,1-10.17,2.55,19.67,19.67,0,0,1-13.42-4.77q-5.44-4.77-5.45-13.19t5.42-13.52q5.43-5.18,16.86-6.71l14.6-2V84.33q0-4.6-2.84-6.94c-1.89-1.55-4.51-2.33-7.84-2.33a29.86,29.86,0,0,0-8.19,1.28,36,36,0,0,0-8.92,4.06L348,70.12a48.55,48.55,0,0,1,11.85-5.32,46.84,46.84,0,0,1,13-1.73q13,0,19.21,6.25t6.25,18.81ZM381.93,99.9V95.69l-11.31,1.48q-4.77.63-7.1,2.76a7.33,7.33,0,0,0-2.33,5.71,7,7,0,0,0,2.27,5.4,8.7,8.7,0,0,0,6.14,2.1,11.54,11.54,0,0,0,8.89-3.72A13.45,13.45,0,0,0,381.93,99.9Z"/><path class="cls-3" d="M450.53,79a19.56,19.56,0,0,0-2.33-.43,23.37,23.37,0,0,0-2.61-.14q-7.11,0-10.72,4.52t-3.61,12.53v28.65H413.87V64.55h17.39V75.69h.23a18.76,18.76,0,0,1,6.08-9.12,15.41,15.41,0,0,1,9.66-3,19.14,19.14,0,0,1,2.65.17q1.28.16,2.64.45Z"/><path class="cls-3" d="M498.16,123.2A27.37,27.37,0,0,1,492.1,125a38.11,38.11,0,0,1-6.79.6q-9.54,0-14.4-4.66t-4.86-13.87V77.39h-9.72V64.55h9.72V51.14l17.33-5V64.55H497V77.39H483.38v28.48q0,3.63,1.42,5.28a5.48,5.48,0,0,0,4.38,1.65,10.92,10.92,0,0,0,2.9-.37,14.92,14.92,0,0,0,2.61-1Z"/><path class="cls-3" d="M602.45,124.17H584.88V75.06q0-3.91.2-8.3c.14-2.91.31-5.94.54-9.09h-.51c-.49,2.46-.93,4.57-1.31,6.31a32,32,0,0,1-1.19,4.32l-19.72,55.87H548.57l-20-55.36a40.48,40.48,0,0,1-1-3.92c-.44-1.86-.94-4.26-1.51-7.22h-.51c.3,3.83.5,7.47.6,10.94s.14,6.74.14,9.8v45.76h-16V42.67h25.86l17.22,48.87a44,44,0,0,1,1.76,5.4c.46,1.78.87,3.55,1.25,5.29h.34c.53-2.08,1.08-4,1.62-5.83s1.09-3.45,1.62-5l17.22-48.76h25.3Z"/><path class="cls-3" d="M676.33,124.17H659V115h-.28a23.61,23.61,0,0,1-7.93,8,20.2,20.2,0,0,1-10.37,2.67q-10.39,0-15.57-6.28t-5.17-18.84v-36H637V98.87q0,6.66,2.61,10t7.9,3.35a10.45,10.45,0,0,0,8.36-3.66Q659,104.9,659,98.65V64.55h17.34Z"/><path class="cls-3" d="M748.73,64.55l-22.39,59.62H706.73L685.37,64.55H704l11,37.51c.54,2,1,3.88,1.34,5.62a38.81,38.81,0,0,1,.71,4.72h.23a35,35,0,0,1,.71-4.6q.54-2.51,1.39-5.4l11.2-37.85Z"/></svg>