<svg id="Layer_1" data-name="Layer 1" xmlns="http://www.w3.org/2000/svg" viewBox="0 0 56.59 55.06"><defs><style>.cls-1{fill:#0e27c7;}.cls-2{fill:#fff;}</style></defs><path class="cls-1" d="M34.31,51.09c-.3,0-.54,0-.86,0a7.7,7.7,0,0,1-.8-.08,17.15,17.15,0,0,1-11.71-5.81,16.88,16.88,0,0,1-3.77-6.4,1.26,1.26,0,0,0-.66-.7A17.64,17.64,0,0,1,7,30,17.19,17.19,0,0,1,4.9,19.43a16.75,16.75,0,0,1,5.72-11A17,17,0,0,1,23.55,4,17.18,17.18,0,0,1,34.66,9.16a18.93,18.93,0,0,1,4.13,6.53,1.58,1.58,0,0,0,.85.8,17.69,17.69,0,0,1,7.53,4.91,16.89,16.89,0,0,1,4.14,7.84,17.06,17.06,0,0,1-2.93,14.55A17.65,17.65,0,0,1,35.31,51C34.76,51.07,34.85,51.06,34.31,51.09Z"/><path d="M20,39.06c0,3.8,7.73,9.4,13.21,9.62A15.43,15.43,0,0,0,49.44,34.15c.39-7.68-5-13.59-9.74-15,0,.47,0,.93,0,1.39s.08.94,0,1.41a17.73,17.73,0,0,1-1.83,7.29,1,1,0,0,0,.25,1.35c.81.77,1.61,1.54,2.35,2.37.5.55.84.49,1.3,0,.78-.85,1.61-1.65,2.53-2.58,0,.55,0,.91,0,1.27-.08,1.31-.18,2.62-.25,3.93-.13,2.17-.24,4.35-.34,6.52,0,.39-.18.55-.6.57-2.81.09-5.62.22-8.43.31-.95,0-1.9,0-2.89,0,.13-.14.27-.31.42-.46.71-.72,1.42-1.44,2.15-2.14.33-.32.42-.56,0-.92-.86-.81-1.71-1.64-2.53-2.5a.8.8,0,0,0-1.15-.14,17.09,17.09,0,0,1-9,2.25C21.17,39,20.58,39.06,20,39.06Z"/><path d="M15.59,21.1c.24.08.3.09.33.12.55.53,1.09,1.07,1.65,1.6.4.39.82.77,1.23,1.16.36-.43.73-.84,1.06-1.28A17.63,17.63,0,0,1,25.08,18c.52-.29.52-.59.12-1-.17-.15-.32-.31-.48-.47l-2.21-2.25c1-1.2,2.23-2.09,3.2-3.42-.41,0-.58-.06-.74-.06l-4.81.22c-2.17.09-4.34.2-6.51.28-.49,0-.69.22-.72.72-.18,3.76-.38,7.51-.57,11.27a5.54,5.54,0,0,0,.07.81l.23.11Z"/><path d="M24.67,21.26a4.94,4.94,0,0,0-.54.37c-.39.34-.75.72-1.13,1.07s-.36.62,0,1c2.68,2.71,5.34,5.43,8,8.14,1.45,1.46,1.45,1.44,2.8-.17.4-.48.45-.79,0-1.28-2.88-2.88-5.73-5.81-8.6-8.71A4.3,4.3,0,0,0,24.67,21.26Z"/><path d="M21.42,25.1l-.37.14c-.33.6-.68,1.19-.95,1.81a.73.73,0,0,0,.16.65c2.27,2.33,4.54,4.67,6.85,7,1.11,1.1,1.15,1.07,2.56.31.74-.39.75-.46.18-1-2-2-3.91-4-5.84-6C23.12,27,22.28,26.05,21.42,25.1Z"/><path d="M35.86,28.58c.17-.34.34-.72.55-1.07a1.28,1.28,0,0,0-.33-1.8c-2.08-2-4.1-4.08-6.14-6.14a1.83,1.83,0,0,0-2.87.15Z"/><path d="M19.25,30.56l-.28.1c-.06.48-.11,1-.18,1.44a1.78,1.78,0,0,0,.66,1.77c.77.68,1.47,1.46,2.21,2.18a3,3,0,0,0,3.67.43Z"/><path d="M37.37,23.26c1-2.17-.4-3.49-1.86-4.81a3.55,3.55,0,0,0-3.2-.34Z"/><path class="cls-2" d="M15.59,21.1l-2.93,3.18c-.17.16-.19.15-.23.13s-.07-.08-.09-.26a7,7,0,0,1,0-.79c.19-3.76.39-7.51.57-11.27,0-.5.23-.7.72-.72,2.17-.08,4.34-.19,6.51-.28L25,10.87c.16,0,.33,0,.74.06-1,1.33-2.19,2.22-3.2,3.42l2.21,2.25c.16.16.31.32.48.47.4.38.4.68-.12,1a17.63,17.63,0,0,0-5.22,4.66c-.33.44-.7.85-1.06,1.28-.41-.39-.83-.77-1.23-1.16-.56-.53-1.1-1.07-1.65-1.6C15.89,21.19,15.83,21.18,15.59,21.1Z"/><path class="cls-2" d="M20,39.06c.58,0,1.17,0,1.75,0a17.09,17.09,0,0,0,9-2.25.8.8,0,0,1,1.15.14c.82.86,1.67,1.69,2.53,2.5.38.36.29.6,0,.92-.73.7-1.44,1.42-2.15,2.14-.15.15-.29.32-.42.46,1,0,1.94,0,2.89,0,2.81-.09,5.62-.22,8.43-.31.42,0,.58-.18.6-.57.1-2.17.21-4.35.34-6.52.07-1.31.17-2.62.25-3.93,0-.36,0-.72,0-1.27-.92.93-1.75,1.73-2.53,2.58-.46.51-.8.57-1.3,0-.74-.83-1.54-1.6-2.35-2.37a1,1,0,0,1-.25-1.35A17.73,17.73,0,0,0,39.75,22c0-.47,0-.94,0-1.41s0-.92,0-1.39c4.75,1.41,10.13,7.32,9.74,15A15.43,15.43,0,0,1,33.21,48.68C27.73,48.46,20,42.86,20,39.06Z"/><path class="cls-2" d="M24.67,21.26a4.3,4.3,0,0,1,.51.4c2.87,2.9,5.72,5.83,8.6,8.71.49.49.44.8,0,1.28-1.35,1.61-1.35,1.63-2.8.17-2.68-2.71-5.34-5.43-8-8.14-.36-.36-.39-.64,0-1s.74-.73,1.13-1.07A4.94,4.94,0,0,1,24.67,21.26Z"/><path class="cls-2" d="M21.42,25.1c.86.95,1.7,1.92,2.59,2.84,1.93,2,3.89,4,5.84,6,.57.58.56.65-.18,1-1.41.76-1.45.79-2.56-.31-2.31-2.3-4.58-4.64-6.85-7a.73.73,0,0,1-.16-.65c.27-.62.62-1.21.95-1.81Z"/><path class="cls-2" d="M35.86,28.58l-8.79-8.86a1.83,1.83,0,0,1,2.87-.15c2,2.06,4.06,4.13,6.14,6.14a1.28,1.28,0,0,1,.33,1.8C36.2,27.86,36,28.24,35.86,28.58Z"/><path class="cls-2" d="M19.25,30.56l6.08,5.92a3,3,0,0,1-3.67-.43c-.74-.72-1.53-1.46-2.21-2.18a1.78,1.78,0,0,1-.66-1.77c.07-.48.12-1,.18-1.44Z"/><path class="cls-2" d="M37.37,23.26l-5.06-5.15a3.55,3.55,0,0,1,3.2.34C37,19.77,38.39,21.09,37.37,23.26Z"/></svg>